HIERARCHY
ROOT Hips
{
	OFFSET 0.00 0.00 0.00
	CHANNELS 6 Xposition Yposition Zposition Zrotation Xrotation Yrotation
	JOINT Chest
	{
		OFFSET 0.00000 8.11775 0.00000
		CHANNELS 3 Zrotation Xrotation Yrotation
		JOINT Chest2
		{
			OFFSET 0.00000 9.64807 0.00000
			CHANNELS 3 Zrotation Xrotation Yrotation
			JOINT Chest3
			{
				OFFSET 0.00000 9.64807 0.00000
				CHANNELS 3 Zrotation Xrotation Yrotation
				JOINT Chest4
				{
					OFFSET 0.00000 9.88146 0.00000
					CHANNELS 3 Zrotation Xrotation Yrotation
					JOINT Neck
					{
						OFFSET 0.00000 16.40048 0.00000
						CHANNELS 3 Zrotation Xrotation Yrotation
						JOINT Head
						{
							OFFSET 0.00000 10.49562 0.00000
							CHANNELS 3 Zrotation Xrotation Yrotation
							End Site
							{
								OFFSET 0.00000 15.96128 0.00000
							}
						}
					}
					JOINT RightCollar
					{
						OFFSET -2.41754 10.88314 0.54774
						CHANNELS 3 Zrotation Xrotation Yrotation
						JOINT RightShoulder
						{
							OFFSET -10.75719 0.00000 0.00000
							CHANNELS 3 Zrotation Xrotation Yrotation
							JOINT RightElbow
							{
								OFFSET 0.00000 -30.98310 0.00000
								CHANNELS 3 Zrotation Xrotation Yrotation
								JOINT RightWrist
								{
									OFFSET 0.00000 -25.02345 0.00000
									CHANNELS 3 Zrotation Xrotation Yrotation
									End Site
									{
										OFFSET 0.00000 -7.81714 0.00000
									}
								}
							}
						}
					}
					JOINT LeftCollar
					{
						OFFSET 2.41754 10.88314 0.54774
						CHANNELS 3 Zrotation Xrotation Yrotation
						JOINT LeftShoulder
						{
							OFFSET 10.75719 0.00000 0.00000
							CHANNELS 3 Zrotation Xrotation Yrotation
							JOINT LeftElbow
							{
								OFFSET 0.00000 -30.98310 0.00000
								CHANNELS 3 Zrotation Xrotation Yrotation
								JOINT LeftWrist
								{
									OFFSET 0.00000 -25.02345 0.00000
									CHANNELS 3 Zrotation Xrotation Yrotation
									End Site
									{
										OFFSET 0.00000 -7.81714 0.00000
									}
								}
							}
						}
					}
				}
			}
		}
	}
	JOINT RightHip
	{
		OFFSET -8.67066 -4.59659 2.26727
		CHANNELS 3 Zrotation Xrotation Yrotation
		JOINT RightKnee
		{
			OFFSET 0.00000 -40.29415 -0.00000
			CHANNELS 3 Zrotation Xrotation Yrotation
			JOINT RightAnkle
			{
				OFFSET 0.00000 -39.18889 0.00000
				CHANNELS 3 Zrotation Xrotation Yrotation
				JOINT RightToe
				{
					OFFSET 0.00000 -6.65534 11.52740
					CHANNELS 3 Zrotation Xrotation Yrotation
					End Site
					{
						OFFSET -0.00000 0.00000 8.50196
					}
				}
			}
		}
	}
	JOINT LeftHip
	{
		OFFSET 8.67066 -4.59659 2.26727
		CHANNELS 3 Zrotation Xrotation Yrotation
		JOINT LeftKnee
		{
			OFFSET 0.00000 -40.29415 -0.00000
			CHANNELS 3 Zrotation Xrotation Yrotation
			JOINT LeftAnkle
			{
				OFFSET 0.00000 -39.18889 0.00000
				CHANNELS 3 Zrotation Xrotation Yrotation
				JOINT LeftToe
				{
					OFFSET 0.00000 -6.65534 11.52740
					CHANNELS 3 Zrotation Xrotation Yrotation
					End Site
					{
						OFFSET -0.00000 0.00000 8.50196
					}
				}
			}
		}
	}
}
MOTION
Frames: 19
Frame Time: 0.033367
 113.8109 89.0787 -18.0490 -7.9021 -2.1146 -51.8321 -5.1015 0.8088 0.3319 -1.1499 2.1005 0.0311 -1.6995 0.5556 0.3009 -1.0972 0.4244 0.3981 17.2395 2.0873 4.9221 3.7421 -11.1044 12.4648 -28.1242 -20.8493 19.2997 31.0498 -62.6277 21.8271 180.0000 -56.2850 -180.0000 -49.1340 1.5683 -1.8402 13.9897 -10.8761 -26.1716 16.4687 -45.4297 -0.5420 0.0000 -80.7319 0.0000 27.9176 -31.1751 -42.6343 0.1076 -21.8177 -10.7508 0.0000 16.2509 -0.0000 2.9915 16.6764 -19.6423 -0.0000 3.8337 0.0000 -4.1110 -1.0493 -10.4303 0.0000 35.1078 -0.0000 1.5253 -23.6166 28.3124 0.0000 4.8942 0.0000
 114.1589 89.9724 -17.8469 -7.2914 -2.3502 -53.4604 -4.7724 1.4450 0.5294 -1.2679 2.1639 0.4386 -1.8346 0.6443 0.9220 -1.7448 0.0425 0.5973 13.6436 -1.1706 4.5975 4.4396 -11.1690 11.6737 -27.5073 -19.3893 19.9461 27.0815 -60.8290 15.0056 180.0000 -53.4978 -180.0000 -49.3251 -8.5843 6.5205 13.9598 -12.4377 -24.5271 15.5093 -47.1961 4.4533 0.0000 -82.3869 0.0000 34.4660 -32.5080 -31.3909 -0.7849 -21.3661 -7.9473 0.0000 15.3738 -0.0000 3.6900 19.0178 -14.8318 0.0000 4.5244 -0.0000 -4.6043 -0.7970 -12.2361 0.0000 33.6979 -0.0000 -1.4720 -20.0940 24.4399 0.0000 2.5133 -0.0000
 114.6387 90.2262 -17.9363 -6.7162 -2.1919 -55.5876 -3.5661 2.2579 1.0893 -1.6504 2.1867 0.9898 -2.2728 0.8746 1.8113 -2.6068 -0.4203 1.1143 9.7871 -4.0959 4.7397 5.2867 -12.7213 10.4923 -25.8534 -17.2834 21.9597 22.8215 -60.8269 7.0588 -180.0000 -50.9004 -180.0000 -49.5227 -15.6485 12.2904 14.4866 -14.4283 -22.3602 15.6568 -49.3167 10.4800 0.0000 -85.2163 0.0000 41.4213 -26.5567 -16.4663 -0.7948 -22.3164 -3.4280 0.0000 17.0238 -0.0000 2.8022 19.5460 -11.8963 -0.0000 3.4214 -0.0000 -3.6198 -2.1095 -14.0343 0.0000 35.0163 0.0000 -5.0766 -18.2398 12.7716 0.0000 1.6726 -0.0000
 115.1559 89.7272 -18.0936 -6.2605 -1.6334 -58.5330 -1.9145 2.9548 2.2102 -2.2501 2.0563 1.7226 -2.6079 1.3436 2.8614 -2.9067 -0.6778 1.5999 5.9694 -6.2742 5.2176 5.1717 -14.4483 9.6500 -23.8992 -16.0317 23.0556 19.3074 -60.0697 0.7800 180.0000 -49.6322 -180.0000 -48.2302 -19.0046 14.7369 15.2493 -15.9724 -19.5734 18.3082 -52.2632 18.4439 0.0000 -88.3471 0.0000 44.8679 -14.5241 -1.7687 0.2603 -24.5660 0.9681 0.0000 21.6866 -0.0000 1.4925 16.0438 -10.3583 -0.0000 2.6976 0.0000 -2.1829 -2.5232 -16.0700 0.0000 35.3167 -0.0000 -8.5476 -20.2213 1.5764 0.0000 3.5903 -0.0000
 115.5400 88.7702 -17.9389 -5.3863 -1.5733 -61.9614 -1.3032 3.3285 2.6985 -2.6032 1.7405 2.3300 -2.7387 1.3898 3.9213 -2.7763 -0.6575 2.5179 3.0328 -7.2408 6.8674 4.1063 -15.5669 8.5149 -22.1812 -14.3233 23.9432 15.5416 -59.4164 -3.0840 -180.0000 -49.9863 -180.0000 -47.7853 -20.6083 16.3351 16.1059 -16.6686 -15.8643 24.7535 -54.4455 27.9804 180.0000 -88.5376 180.0000 44.3508 0.4801 13.6896 0.9890 -27.1120 4.3739 0.0000 27.3403 -0.0000 1.1733 9.7283 -9.9276 -0.0000 2.6068 0.0000 -2.5785 -2.1201 -14.0114 0.0000 34.5045 -0.0000 -7.2554 -24.5605 -0.2618 -0.0000 4.4709 -0.0000
 115.7201 87.8487 -17.7530 -4.7967 -1.9391 -63.8498 -1.7604 3.6539 2.6297 -2.3359 1.5846 2.5949 -2.5415 1.5387 4.5117 -2.3970 -0.4873 2.9628 1.2015 -7.5896 8.1770 2.8975 -16.0678 8.3196 -20.4105 -12.8651 23.9692 9.7317 -57.4587 -4.8353 180.0000 -51.8775 -180.0000 -45.5001 -20.9206 17.6143 17.3411 -16.3437 -12.1810 35.2719 -55.3788 40.0752 180.0000 -86.8074 180.0000 38.0833 12.2110 28.9795 0.9310 -28.5568 6.0911 0.0000 31.3510 -0.0000 1.1946 4.1076 -9.5753 -0.0000 2.3366 0.0000 -4.6770 -3.0148 -14.3172 0.0000 36.7308 0.0000 -3.3192 -27.1648 4.0713 0.0000 4.5312 0.0000
 115.4835 87.3035 -17.9214 -4.8292 -1.0779 -63.5472 -1.5624 3.5502 2.9205 -1.9514 1.4966 2.5033 -1.7168 1.6760 4.3164 -1.3105 -0.3809 2.7373 -0.8458 -6.7868 8.5916 2.1314 -15.9235 8.5500 -19.1564 -11.2112 24.1924 1.6287 -54.2203 -6.6067 180.0000 -54.4088 -180.0000 -41.2963 -20.6238 19.4090 18.3013 -15.9012 -9.5679 45.2722 -53.7247 50.7662 180.0000 -86.7326 180.0000 27.7314 17.3641 45.7538 2.4851 -28.9469 8.1274 0.0000 32.4981 -0.0000 0.6322 1.4951 -11.1601 0.0000 2.2747 0.0000 -4.6878 -4.8646 -16.5137 0.0000 40.3152 -0.0000 -4.0399 -28.5759 5.3285 0.0000 5.4800 0.0000
 114.8700 87.1618 -18.0955 -5.1571 -0.6722 -61.9864 -1.6478 3.5988 3.0861 -1.6409 1.4341 2.4456 -0.9213 1.8398 4.1636 -0.3369 -0.2686 2.5842 -2.5162 -5.6154 8.4721 1.5264 -15.8249 8.0507 -17.5997 -10.1525 23.8910 -6.0537 -49.6196 -7.3765 -180.0000 -57.0906 -180.0000 -34.6224 -20.6205 22.6793 19.0241 -15.7023 -7.7762 53.3903 -51.9331 57.6162 180.0000 -88.1782 180.0000 19.4900 18.2500 59.2762 3.5260 -28.4650 9.6609 0.0000 33.1992 -0.0000 0.8563 -0.3946 -14.4971 0.0000 2.5166 -0.0000 -3.1327 -5.0807 -15.4241 0.0000 41.0910 -0.0000 -5.2077 -29.0083 2.0156 0.0000 5.7515 -0.0000
 114.0347 87.4549 -18.2555 -5.1175 -0.9012 -58.9125 -2.3366 3.6414 2.9625 -1.1490 1.3818 2.2232 -0.3735 1.9290 3.8640 0.3558 -0.2242 2.3468 -4.1218 -4.5860 7.7871 0.7504 -15.5288 6.9065 -16.5751 -9.0045 23.6787 -11.9201 -45.3169 -6.9078 -180.0000 -59.5991 -180.0000 -26.4624 -19.0387 26.6696 19.8029 -15.9481 -6.4845 59.2898 -50.1597 60.9860 180.0000 -89.7973 180.0000 11.1911 15.5196 71.2223 2.7135 -27.8837 10.0592 0.0000 34.0714 -0.0000 1.9178 -1.4628 -14.9139 -0.0000 2.9974 -0.0000 -1.7108 -4.5587 -14.3950 0.0000 39.8399 -0.0000 -6.2859 -28.0491 -2.6073 0.0000 5.5501 -0.0000
 112.9141 88.1544 -18.5153 -4.8106 -0.8639 -53.3631 -2.6585 3.4795 2.4929 -0.7020 1.2759 1.6883 0.1337 1.8753 3.0159 0.9234 -0.1856 1.9419 -6.2050 -3.6464 6.8895 0.0526 -14.7411 4.8316 -16.0559 -8.5118 22.8770 -15.3926 -40.6863 -4.7613 180.0000 -61.7788 180.0000 -16.3884 -13.7191 29.0172 20.6984 -16.1668 -5.7631 63.7279 -49.1565 62.3555 0.0000 -88.2998 0.0000 3.7222 9.0094 81.6207 0.7100 -27.1454 9.7119 0.0000 35.0011 -0.0000 3.8193 -1.7511 -12.1446 0.0000 2.4912 -0.0000 -0.0417 -4.3319 -15.4761 0.0000 37.6776 -0.0000 -8.1430 -25.8004 -7.6520 0.0000 5.4528 -0.0000
 111.4994 89.1123 -18.8491 -4.8002 -0.4665 -45.8988 -2.6821 3.2776 2.2071 -0.0868 1.1394 0.9139 0.9231 1.8159 1.7170 1.7040 -0.1657 1.2577 -8.9124 -2.5255 5.4674 -0.9870 -13.8977 2.1870 -15.8074 -8.3508 22.4807 -19.9544 -35.7675 -3.0021 180.0000 -63.7100 180.0000 -5.0997 -7.8005 31.0282 20.9481 -16.0289 -5.6730 68.0316 -48.7855 62.5860 0.0000 -86.6615 0.0000 -1.2311 1.4347 86.3723 -1.3461 -25.0274 10.3824 0.0000 34.7000 -0.0000 6.5481 -1.9106 -7.7325 -0.0000 1.6359 0.0000 2.5584 -4.6210 -16.8003 0.0000 35.2726 -0.0000 -10.5475 -22.2354 -13.7339 0.0000 4.5647 -0.0000
 109.9206 90.0516 -19.1457 -4.8656 0.0024 -37.8225 -2.4802 2.9287 1.6599 0.3538 1.1086 0.2955 1.7275 1.8440 0.6429 2.7055 -0.2278 0.7545 -11.6752 -1.7841 3.9973 -2.7312 -12.8242 -1.2520 -15.4711 -7.8488 21.5608 -26.3092 -31.7425 -0.6378 180.0000 -65.3645 180.0000 5.3363 -0.7064 33.8174 21.7465 -15.9189 -5.6005 71.3752 -48.2795 61.3302 0.0000 -86.0416 0.0000 -4.6714 -5.6032 88.7799 -3.1127 -21.5967 11.9370 0.0000 32.6277 -0.0000 8.2004 -2.8157 -3.2618 0.0000 1.1044 0.0000 5.4069 -5.9245 -16.9354 0.0000 33.5796 -0.0000 -12.5432 -17.8093 -20.2547 0.0000 2.7628 0.0000
 108.2895 90.6996 -19.3118 -4.8316 0.2406 -29.7274 -2.2980 2.6645 1.4101 0.7059 1.0069 -0.2464 2.5017 1.6695 -0.3518 3.6446 -0.2106 0.2303 -14.3547 -0.7452 2.4401 -4.1795 -11.8586 -4.7238 -15.4706 -7.6928 20.0389 -33.1008 -28.4130 2.6546 180.0000 -66.9270 180.0000 15.6432 8.0893 32.8314 22.2065 -15.9996 -5.9926 75.0900 -46.8583 58.7657 0.0000 -86.3721 0.0000 -7.7747 -12.7951 87.8663 -4.5944 -17.2607 14.0934 0.0000 29.1622 -0.0000 9.2373 -4.7514 -1.5186 -0.0000 0.4111 0.0000 7.7626 -8.1817 -14.7852 0.0000 33.2281 -0.0000 -14.2213 -13.6900 -25.0184 0.0000 1.6414 -0.0000
 106.6394 90.9339 -19.4511 -5.0831 0.4930 -22.2097 -2.0413 2.2635 1.4228 1.0813 0.9861 -0.7290 3.3185 1.5257 -1.2609 4.5501 -0.1326 -0.3794 -16.3232 0.3610 0.7263 -5.6690 -11.1936 -7.6569 -15.7855 -7.0517 18.4553 -40.9103 -26.5153 5.8703 180.0000 -69.0190 180.0000 23.5334 13.3576 31.0186 22.5476 -15.7134 -6.2564 80.0927 -44.8738 55.5661 0.0000 -87.6826 0.0000 -11.4831 -17.3454 83.9139 -4.8482 -13.0806 15.3551 0.0000 25.6784 -0.0000 9.8964 -7.2833 -3.8100 0.0000 -0.3442 0.0000 9.6141 -10.8603 -10.5346 0.0000 34.3770 -0.0000 -14.8396 -12.2741 -22.7006 0.0000 0.9365 -0.0000
 104.8596 90.6413 -19.5620 -6.3471 0.6625 -16.0496 -1.1907 2.0214 1.4439 1.3323 0.9235 -1.1060 4.2838 1.3199 -2.0394 5.3546 0.0339 -0.8958 -17.5948 1.4675 -0.7354 -6.1187 -10.3530 -9.6921 -16.4451 -6.6342 17.4684 -48.7095 -25.2972 8.6816 180.0000 -71.8456 180.0000 28.7969 15.8032 27.4482 22.6588 -15.3230 -5.9312 85.5041 -43.0205 51.0248 0.0000 -89.8207 0.0000 -14.8029 -20.6241 79.8787 -2.6639 -10.2445 14.0818 0.0000 24.6778 -0.0000 7.4623 -10.9799 -9.2224 0.0000 0.6789 -0.0000 11.7722 -13.2728 -3.9305 0.0000 36.9807 -0.0000 -12.3395 -14.7327 -13.0565 -0.0000 1.0212 0.0000
 103.0546 90.0069 -19.6393 -7.9778 0.5858 -11.5191 -0.4596 1.9185 1.2706 1.7047 0.7392 -1.3030 5.0862 1.0452 -2.3952 5.7467 0.1239 -1.1338 -17.7721 2.8211 -2.0237 -5.2646 -9.4652 -11.0351 -16.7879 -5.2732 16.9989 -56.1401 -24.8180 9.1890 180.0000 -75.4991 180.0000 33.1809 15.7908 21.5508 22.4839 -14.3503 -5.5271 91.8331 -41.9698 46.0054 180.0000 -87.2456 180.0000 -18.2133 -22.1218 76.4208 -0.0623 -8.8695 10.6222 0.0000 25.4822 -0.0000 4.3912 -14.6453 -11.7461 0.0000 2.8476 0.0000 13.3439 -15.0918 0.7155 0.0000 39.4506 -0.0000 -8.2100 -18.5478 0.8716 0.0000 2.4031 -0.0000
 101.3370 89.3123 -19.7408 -9.5832 0.3830 -8.5504 0.0720 1.7859 1.1990 2.0816 0.5700 -1.3643 5.5584 0.9063 -2.4150 5.7547 0.3079 -1.2123 -17.0396 3.6688 -3.3181 -3.9788 -8.6299 -11.8878 -17.7922 -5.6277 16.4302 -59.1981 -23.8977 8.4456 180.0000 -79.9857 180.0000 36.5764 14.7868 16.4489 22.3074 -13.5353 -4.3548 97.0906 -43.6416 41.2871 180.0000 -83.5632 180.0000 -23.1965 -22.6729 69.8816 2.4706 -8.6024 9.0059 0.0000 27.3373 -0.0000 3.6727 -17.8336 -12.6168 0.0000 4.2471 -0.0000 13.7941 -16.7080 -1.6268 0.0000 42.0479 -0.0000 -4.9836 -21.1794 12.5448 0.0000 4.4672 -0.0000
 99.7799 88.8313 -19.8216 -11.1108 0.0554 -7.4294 0.6432 1.6362 1.4493 2.1980 0.4578 -1.1964 5.8826 0.7438 -2.1137 5.7006 0.4268 -1.1076 -16.5273 4.8861 -4.4069 -2.3375 -7.8868 -12.3795 -18.3934 -5.9817 16.3234 -60.2976 -23.1940 4.9071 180.0000 -84.2912 180.0000 37.3149 13.6261 11.8092 22.1262 -12.6343 -3.0971 99.2787 -47.8942 36.3474 180.0000 -79.5181 180.0000 -30.0701 -21.7533 61.1460 5.4388 -8.5930 10.1878 0.0000 29.1261 -0.0000 2.9918 -19.5866 -14.7562 0.0000 4.5329 -0.0000 13.7386 -18.1417 -9.5573 0.0000 45.5112 -0.0000 -7.0080 -21.2489 17.6624 0.0000 3.3327 -0.0000
 98.6641 88.4309 -19.8578 -11.7515 -0.8932 -8.8977 0.8806 1.8816 1.7361 1.8773 0.4869 -0.6580 5.6332 0.8987 -1.2674 5.5821 0.3599 -0.6927 -15.6770 6.4074 -4.7993 -0.6597 -7.3097 -12.2866 -18.5856 -6.2031 16.3084 -60.1260 -24.1620 -0.6781 180.0000 -88.4939 180.0000 36.3125 10.1872 4.6611 22.0612 -12.1540 -3.1567 95.2104 -52.6373 28.6488 180.0000 -75.5208 180.0000 -38.2225 -17.1138 49.0663 7.2702 -8.4385 12.1646 0.0000 31.3357 -0.0000 2.5467 -20.7457 -15.4093 0.0000 4.5517 -0.0000 13.3070 -18.3491 -13.9967 0.0000 49.1528 -0.0000 -8.9718 -19.7180 20.5837 0.0000 1.5220 -0.0000
